<svg xmlns="http://www.w3.org/2000/svg" width="14" height="14" viewBox="0 0 14 14">
  <path fill="#444a58" d="m9.15 14h-4.3c-2.67760039-.003307-4.84724504-2.173399-4.85-4.851v-4.3c.00385783-2.67720984 2.1737888-4.84624618 4.851-4.849h4.3c2.6772098.00385783 4.8462462 2.1737888 4.849 4.851v4.3c-.0038566 2.67682-2.1731793 4.8456953-4.85 4.849zm-4.299-11.087c-1.06987089.00110239-1.93689761.86812911-1.938 1.938v4.3c.00110239 1.0698709.86812911 1.9368976 1.938 1.938h4.3c1.0697087-.0011032 1.9364489-.8682909 1.937-1.938v-4.3c-.0005517-1.07009922-.8679008-1.93744826-1.938-1.938z"/>
</svg>
