<svg height="14" viewBox="0 0 14 14" width="14" xmlns="http://www.w3.org/2000/svg"><path d="m9.149 0h-4.3c-2.67681997.00385664-4.84569534 2.17317929-4.849 4.85v4.3c.00330699 2.6776004 2.17339898 4.847245 4.851 4.85h4.3c2.67682-.0038566 4.8456953-2.1731793 4.849-4.85v-4.3c-.003307-2.67760039-2.173399-4.84724504-4.851-4.85zm1.888 5.534-4.475 4.475c-.22057865.2208136-.51988853.3448851-.832.3448851s-.61142135-.1240715-.832-.3448851l-1.935-1.935c-.42279772-.43341316-.41850308-1.1262264.00963526-1.55436474s1.12095158-.43243298 1.55436474-.00963526l1.1 1.1c.02816499.0283969.06650437.04436975.1065.04436975s.07833501-.01597285.1065-.04436975l3.633-3.64c.2781996-.28518453.688281-.39870634 1.073532-.29718314.3852509.10152319.6861279.40240024.7876511.78765116.1015232.38525093-.0119986.79533238-.2971831 1.07353198z" fill="#444a58"/></svg>